<svg viewBox="0 0 232 44" xmlns="http://www.w3.org/2000/svg" data-logo="logo">
        <g transform="translate(0, 1.5) rotate(0)" id="logogram"><path fill="RGB(254, 85, 47)" d="M9.00537 3.67782C7.57471 4.67818 6.28101 5.86093 5.15796 7.19235C9.74726 6.76628 15.5778 7.462 22.347 10.8466C29.5756 14.4608 35.3964 14.583 39.4474 13.8016C39.0798 12.6887 38.617 11.6191 38.0689 10.6023C33.4316 11.0914 27.4866 10.444 20.5582 6.97993C16.1586 4.78013 12.2804 3.87396 9.00537 3.67782ZM35.36 6.7466C31.6979 2.65495 26.376 0.0799561 20.4526 0.0799561C18.7131 0.0799561 17.0253 0.302063 15.4163 0.719436C17.5955 1.31404 19.9105 2.18394 22.347 3.40222C27.4196 5.93848 31.799 6.75511 35.36 6.7466ZM40.3135 17.708C35.4195 18.6744 28.6614 18.4759 20.5582 14.4243C12.9826 10.6365 6.95307 10.6842 2.88654 11.5879C2.67664 11.6345 2.47168 11.6835 2.27167 11.7345C1.73926 12.8924 1.31427 14.11 1.00934 15.3744C1.33502 15.2874 1.67157 15.2047 2.0188 15.1275C6.95221 14.0312 13.9227 14.0788 22.347 18.291C29.9227 22.0788 35.9522 22.0311 40.0188 21.1274C40.1581 21.0965 40.2954 21.0645 40.4304 21.0315C40.4452 20.7162 40.4526 20.3989 40.4526 20.0799C40.4526 19.2774 40.4054 18.4859 40.3135 17.708ZM39.7774 25.2522C34.9309 26.0995 28.3696 25.7743 20.5582 21.8687C12.9826 18.0809 6.95307 18.1286 2.88654 19.0323C1.98389 19.2328 1.17188 19.4771 0.455567 19.735C0.453614 19.8497 0.452637 19.9647 0.452637 20.0799C0.452637 31.1256 9.40693 40.0799 20.4526 40.0799C29.7097 40.0799 37.4979 33.7908 39.7774 25.2522Z" clip-rule="evenodd" fill-rule="evenodd"></path></g>
        <g transform="translate(47, 1)" id="logotype"><path d="M19.06 34L8.31 34L8.31 8.54L18.41 8.54Q21.21 8.54 23.08 9.38Q24.95 10.23 25.88 11.70Q26.82 13.17 26.82 15.08L26.82 15.08Q26.82 16.59 26.22 17.70Q25.62 18.82 24.59 19.53Q23.55 20.24 22.24 20.55L22.24 20.55L22.24 20.81Q23.67 20.86 24.94 21.62Q26.22 22.38 27.01 23.74Q27.81 25.10 27.81 26.99L27.81 26.99Q27.81 28.99 26.82 30.58Q25.82 32.17 23.88 33.09Q21.94 34 19.06 34L19.06 34ZM13.52 22.81L13.52 29.71L18.03 29.71Q20.32 29.71 21.38 28.82Q22.44 27.93 22.44 26.50L22.44 26.50Q22.44 25.40 21.92 24.57Q21.40 23.75 20.44 23.28Q19.48 22.81 18.17 22.81L18.17 22.81L13.52 22.81ZM13.52 12.79L13.52 19.23L17.64 19.23Q18.75 19.23 19.64 18.83Q20.53 18.43 21.03 17.69Q21.53 16.94 21.53 15.92L21.53 15.92Q21.53 14.53 20.55 13.66Q19.57 12.79 17.74 12.79L17.74 12.79L13.52 12.79ZM27.22 14.89L38.55 14.89L38.55 18.81L27.22 18.81L27.22 14.89ZM29.86 28.86L29.86 10.35L34.98 10.35L34.98 28.41Q34.98 29.32 35.38 29.75Q35.79 30.19 36.73 30.19L36.73 30.19Q37.02 30.19 37.55 30.11Q38.08 30.04 38.35 29.97L38.35 29.97L39.08 33.81Q38.23 34.07 37.38 34.17Q36.54 34.27 35.77 34.27L35.77 34.27Q32.90 34.27 31.38 32.87Q29.86 31.47 29.86 28.86L29.86 28.86ZM44.74 34L39.61 34L39.61 14.89L44.74 14.89L44.74 34ZM42.18 12.40L42.18 12.40Q41.01 12.40 40.19 11.63Q39.37 10.86 39.37 9.77L39.37 9.77Q39.37 8.67 40.19 7.90Q41.01 7.13 42.18 7.13L42.18 7.13Q43.34 7.13 44.17 7.90Q44.99 8.66 44.99 9.77L44.99 9.77Q44.99 10.86 44.17 11.63Q43.34 12.40 42.18 12.40ZM55.30 41.55L55.30 41.55Q52.92 41.55 51.15 40.95Q49.37 40.34 48.26 39.28Q47.15 38.22 46.72 36.87L46.72 36.87L51.13 35.64Q51.37 36.17 51.87 36.67Q52.38 37.18 53.21 37.50Q54.05 37.83 55.28 37.83L55.28 37.83Q57.25 37.83 58.37 36.93Q59.49 36.03 59.49 34.14L59.49 34.14L59.49 30.62L59.09 30.62Q58.75 31.39 58.10 32.10Q57.45 32.82 56.40 33.27Q55.35 33.73 53.79 33.73L53.79 33.73Q51.64 33.73 49.88 32.72Q48.12 31.71 47.07 29.64Q46.02 27.57 46.02 24.41L46.02 24.41Q46.02 21.18 47.09 19.01Q48.15 16.84 49.92 15.75Q51.69 14.65 53.81 14.65L53.81 14.65Q55.42 14.65 56.51 15.19Q57.61 15.73 58.28 16.54Q58.96 17.35 59.30 18.11L59.30 18.11L59.52 18.11L59.52 14.89L64.56 14.89L64.56 33.85Q64.56 36.43 63.37 38.14Q62.19 39.86 60.10 40.71Q58.02 41.55 55.30 41.55ZM55.40 29.83L55.40 29.83Q56.72 29.83 57.63 29.18Q58.55 28.53 59.02 27.31Q59.50 26.09 59.50 24.38L59.50 24.38Q59.50 22.69 59.02 21.42Q58.55 20.16 57.63 19.46Q56.72 18.76 55.40 18.76L55.40 18.76Q54.05 18.76 53.14 19.48Q52.22 20.21 51.75 21.47Q51.28 22.74 51.28 24.38L51.28 24.38Q51.28 26.05 51.75 27.28Q52.22 28.50 53.14 29.16Q54.07 29.83 55.40 29.83ZM71.79 22.94L71.79 22.94L71.79 34L66.66 34L66.66 8.54L71.69 8.54L71.69 19.66L71.28 19.66Q72.03 17.27 73.56 15.96Q75.09 14.65 77.51 14.65L77.51 14.65Q79.50 14.65 80.97 15.52Q82.45 16.38 83.26 18.00Q84.08 19.61 84.08 21.85L84.08 21.85L84.08 34L78.95 34L78.95 22.74Q78.95 20.96 78.03 19.95Q77.12 18.94 75.50 18.94L75.50 18.94Q74.42 18.94 73.57 19.41Q72.73 19.88 72.26 20.77Q71.79 21.66 71.79 22.94ZM84.33 14.89L95.66 14.89L95.66 18.81L84.33 18.81L84.33 14.89ZM86.96 28.86L86.96 10.35L92.09 10.35L92.09 28.41Q92.09 29.32 92.49 29.75Q92.89 30.19 93.83 30.19L93.83 30.19Q94.12 30.19 94.65 30.11Q95.18 30.04 95.46 29.97L95.46 29.97L96.19 33.81Q95.34 34.07 94.49 34.17Q93.64 34.27 92.87 34.27L92.87 34.27Q90.00 34.27 88.48 32.87Q86.96 31.47 86.96 28.86L86.96 28.86ZM107.59 34L96.84 34L96.84 8.54L106.94 8.54Q109.74 8.54 111.61 9.38Q113.48 10.23 114.41 11.70Q115.35 13.17 115.35 15.08L115.35 15.08Q115.35 16.59 114.75 17.70Q114.15 18.82 113.12 19.53Q112.08 20.24 110.77 20.55L110.77 20.55L110.77 20.81Q112.20 20.86 113.47 21.62Q114.75 22.38 115.54 23.74Q116.34 25.10 116.34 26.99L116.34 26.99Q116.34 28.99 115.35 30.58Q114.35 32.17 112.41 33.09Q110.47 34 107.59 34L107.59 34ZM102.05 22.81L102.05 29.71L106.56 29.71Q108.85 29.71 109.91 28.82Q110.97 27.93 110.97 26.50L110.97 26.50Q110.97 25.40 110.45 24.57Q109.93 23.75 108.97 23.28Q108.01 22.81 106.70 22.81L106.70 22.81L102.05 22.81ZM102.05 12.79L102.05 19.23L106.17 19.23Q107.28 19.23 108.17 18.83Q109.06 18.43 109.56 17.69Q110.06 16.94 110.06 15.92L110.06 15.92Q110.06 14.53 109.08 13.66Q108.10 12.79 106.27 12.79L106.27 12.79L102.05 12.79ZM126.14 34.38L126.14 34.38Q123.27 34.38 121.17 33.14Q119.07 31.90 117.93 29.68Q116.80 27.47 116.80 24.53L116.80 24.53Q116.80 21.56 117.93 19.35Q119.07 17.13 121.17 15.89Q123.27 14.65 126.14 14.65L126.14 14.65Q129.03 14.65 131.13 15.89Q133.22 17.13 134.36 19.35Q135.49 21.56 135.49 24.53L135.49 24.53Q135.49 27.47 134.36 29.68Q133.22 31.90 131.13 33.14Q129.03 34.38 126.14 34.38ZM126.14 30.34L126.14 30.34Q127.51 30.34 128.43 29.58Q129.36 28.82 129.82 27.50Q130.28 26.17 130.28 24.52L130.28 24.52Q130.28 22.82 129.82 21.51Q129.36 20.19 128.43 19.44Q127.51 18.69 126.14 18.69L126.14 18.69Q124.78 18.69 123.86 19.44Q122.95 20.19 122.49 21.51Q122.03 22.82 122.03 24.52L122.03 24.52Q122.03 26.17 122.49 27.50Q122.95 28.82 123.86 29.58Q124.78 30.34 126.14 30.34ZM142.12 34.38L142.12 34.38Q140.31 34.38 138.87 33.74Q137.42 33.09 136.59 31.82Q135.76 30.55 135.76 28.65L135.76 28.65Q135.76 27.06 136.35 25.98Q136.94 24.91 137.96 24.26Q138.98 23.61 140.27 23.27Q141.56 22.93 142.98 22.79L142.98 22.79Q144.63 22.62 145.65 22.47Q146.67 22.33 147.14 22.01Q147.61 21.70 147.61 21.08L147.61 21.08L147.61 20.99Q147.61 20.17 147.27 19.61Q146.92 19.05 146.26 18.75Q145.59 18.45 144.62 18.45L144.62 18.45Q143.63 18.45 142.89 18.75Q142.16 19.05 141.69 19.54Q141.23 20.04 141.01 20.65L141.01 20.65L136.31 19.87Q136.81 18.21 137.95 17.05Q139.10 15.88 140.80 15.27Q142.50 14.65 144.62 14.65L144.62 14.65Q146.17 14.65 147.62 15.02Q149.08 15.39 150.23 16.16Q151.38 16.93 152.06 18.16Q152.73 19.39 152.73 21.13L152.73 21.13L152.73 34L147.88 34L147.88 31.35L147.71 31.35Q147.25 32.24 146.48 32.91Q145.71 33.59 144.62 33.98Q143.54 34.38 142.12 34.38ZM143.57 30.77L143.57 30.77Q144.79 30.77 145.70 30.29Q146.62 29.81 147.13 28.99Q147.64 28.17 147.64 27.16L147.64 27.16L147.64 25.10Q147.42 25.27 146.96 25.40Q146.50 25.54 145.93 25.64Q145.37 25.75 144.82 25.83Q144.27 25.92 143.85 25.97L143.85 25.97Q142.91 26.10 142.19 26.41Q141.47 26.72 141.08 27.22Q140.69 27.73 140.69 28.51L140.69 28.51Q140.69 29.25 141.06 29.75Q141.44 30.26 142.08 30.51Q142.72 30.77 143.57 30.77ZM159.96 34L154.83 34L154.83 14.89L159.79 14.89L159.79 18.23L160.00 18.23Q160.52 16.45 161.76 15.54Q163.00 14.64 164.61 14.64L164.61 14.64Q165.00 14.64 165.46 14.68Q165.91 14.72 166.27 14.81L166.27 14.81L166.27 19.39Q165.93 19.27 165.28 19.20Q164.63 19.13 164.05 19.13L164.05 19.13Q162.88 19.13 161.94 19.64Q161.00 20.14 160.48 21.04Q159.96 21.93 159.96 23.13L159.96 23.13L159.96 34ZM173.80 34.32L173.80 34.32Q171.60 34.32 169.83 33.19Q168.06 32.05 167.03 29.86Q166.01 27.66 166.01 24.48L166.01 24.48Q166.01 21.22 167.07 19.03Q168.13 16.84 169.89 15.75Q171.65 14.65 173.77 14.65L173.77 14.65Q175.39 14.65 176.47 15.20Q177.54 15.75 178.21 16.55Q178.88 17.35 179.20 18.11L179.20 18.11L179.37 18.11L179.37 8.54L184.50 8.54L184.50 34L179.46 34L179.46 30.94L179.20 30.94Q178.86 31.71 178.19 32.49Q177.51 33.27 176.43 33.79Q175.36 34.32 173.80 34.32ZM175.37 30.21L175.37 30.21Q176.67 30.21 177.60 29.49Q178.52 28.77 179.00 27.48Q179.48 26.19 179.48 24.46L179.48 24.46Q179.48 22.72 179.01 21.45Q178.54 20.17 177.61 19.47Q176.69 18.76 175.37 18.76L175.37 18.76Q174.02 18.76 173.11 19.49Q172.20 20.23 171.73 21.51Q171.27 22.79 171.27 24.46L171.27 24.46Q171.27 26.14 171.74 27.44Q172.21 28.74 173.13 29.47Q174.04 30.21 175.37 30.21Z" fill="#111111"></path></g>
        
      </svg>